<svg width="107" height="24" viewBox="0 0 107 24" fill="none" xmlns="http://www.w3.org/2000/svg">
<path d="M10.5 3L12.5562 8.76L17.99 9.22L13.825 13.24L15.1287 19.28L10.5 16L5.87124 19.28L7.17499 13.24L3.00999 9.22L8.44374 8.76L10.5 3Z" fill="#3C1738" fill-opacity="0.93" stroke="#3C1738" stroke-opacity="0.93" stroke-width="2" stroke-linecap="round" stroke-linejoin="round"/>
<path d="M32 3L34.1542 8.76L39.8467 9.22L35.4833 13.24L36.8492 19.28L32 16L27.1508 19.28L28.5167 13.24L24.1533 9.22L29.8458 8.76L32 3Z" fill="#3C1738" fill-opacity="0.93" stroke="#3C1738" stroke-opacity="0.93" stroke-width="2" stroke-linecap="round" stroke-linejoin="round"/>
<path d="M53.5 3L55.5563 8.76L60.99 9.22L56.825 13.24L58.1288 19.28L53.5 16L48.8713 19.28L50.175 13.24L46.01 9.22L51.4438 8.76L53.5 3Z" fill="#3C1738" fill-opacity="0.93" stroke="#3C1738" stroke-opacity="0.93" stroke-width="2" stroke-linecap="round" stroke-linejoin="round"/>
<path d="M75 3L77.1542 8.76L82.8467 9.22L78.4833 13.24L79.8492 19.28L75 16L70.1508 19.28L71.5167 13.24L67.1533 9.22L72.8458 8.76L75 3Z" fill="#3C1738" fill-opacity="0.93" stroke="#3C1738" stroke-opacity="0.93" stroke-width="2" stroke-linecap="round" stroke-linejoin="round"/>
<path d="M96.5 3L98.5563 8.76L103.99 9.22L99.825 13.24L101.129 19.28L96.5 16L91.8713 19.28L93.175 13.24L89.01 9.22L94.4438 8.76L96.5 3Z" fill="#3C1738" fill-opacity="0.93" stroke="#3C1738" stroke-opacity="0.93" stroke-width="2" stroke-linecap="round" stroke-linejoin="round"/>
</svg>
