<svg width="79" height="73" viewBox="0 0 79 73" fill="none" xmlns="http://www.w3.org/2000/svg">
<path d="M16.4583 39.5417H55.4975L43.5487 52.8034C43.2721 53.1109 43.0637 53.4658 42.9355 53.8478C42.8073 54.2298 42.7617 54.6314 42.8015 55.0296C42.8817 55.8339 43.3044 56.5758 43.9767 57.0921C44.6489 57.6084 45.5155 57.8568 46.3859 57.7826C47.2563 57.7085 48.0592 57.3179 48.6179 56.6967L65.0762 38.4467C65.187 38.3016 65.286 38.1491 65.3725 37.9905C65.3725 37.8384 65.5371 37.7471 65.6029 37.595C65.7521 37.2463 65.8302 36.875 65.8333 36.5C65.8302 36.125 65.7521 35.7538 65.6029 35.405C65.6029 35.253 65.4383 35.1617 65.3725 35.0096C65.286 34.851 65.187 34.6985 65.0762 34.5534L48.6179 16.3034C48.3084 15.96 47.9209 15.6839 47.4828 15.4946C47.0447 15.3054 46.5669 15.2077 46.0833 15.2084C45.3142 15.207 44.5689 15.4545 43.9767 15.908C43.6433 16.1633 43.3678 16.4769 43.1659 16.8308C42.9639 17.1847 42.8395 17.5719 42.7998 17.9703C42.76 18.3687 42.8057 18.7704 42.9342 19.1525C43.0628 19.5345 43.2716 19.8894 43.5487 20.1967L55.4975 33.4584H16.4583C15.5853 33.4584 14.7481 33.7788 14.1308 34.3493C13.5135 34.9197 13.1667 35.6933 13.1667 36.5C13.1667 37.3067 13.5135 38.0804 14.1308 38.6508C14.7481 39.2213 15.5853 39.5417 16.4583 39.5417Z" fill="#231F20"/>
</svg>
