<svg width="870" height="140" viewBox="0 0 870 140" fill="none" xmlns="http://www.w3.org/2000/svg">
<path d="M21.06 48.6C25.1507 48.6 28.6867 49.3453 31.668 50.836C34.6493 52.292 36.9373 54.3893 38.532 57.128C40.1613 59.832 40.976 63.056 40.976 66.8C40.976 70.544 40.1613 73.7853 38.532 76.524C36.9373 79.228 34.6493 81.3253 31.668 82.816C28.6867 84.272 25.1507 85 21.06 85H8.684L8.632 82.816C9.63733 82.816 10.6773 82.816 11.752 82.816C12.8613 82.816 13.936 82.816 14.976 82.816C16.016 82.816 16.9347 82.816 17.732 82.816C18.564 82.816 19.2227 82.816 19.708 82.816C20.1933 82.816 20.436 82.816 20.436 82.816C22.932 82.816 25.0813 82.1747 26.884 80.892C28.6867 79.5747 30.0733 77.72 31.044 75.328C32.0147 72.936 32.5 70.0933 32.5 66.8C32.5 63.5067 32.0147 60.664 31.044 58.272C30.0733 55.88 28.6867 54.0427 26.884 52.76C25.0813 51.4427 22.932 50.784 20.436 50.784C20.436 50.784 20.176 50.784 19.656 50.784C19.1707 50.784 18.4947 50.784 17.628 50.784C16.7613 50.784 15.7907 50.784 14.716 50.784C13.6413 50.784 12.532 50.784 11.388 50.784C10.244 50.784 9.152 50.784 8.112 50.784V48.6H21.06ZM13.988 48.6V85H6.188V48.6H13.988ZM6.344 81.204V85H2.184V84.48C2.184 84.48 2.288 84.48 2.496 84.48C2.73867 84.48 2.86 84.48 2.86 84.48C3.76133 84.48 4.524 84.168 5.148 83.544C5.80667 82.8853 6.15333 82.1053 6.188 81.204H6.344ZM6.344 52.396H6.188C6.188 51.4947 5.85867 50.732 5.2 50.108C4.54133 49.4493 3.76133 49.12 2.86 49.12C2.86 49.12 2.756 49.12 2.548 49.12C2.34 49.12 2.236 49.12 2.236 49.12L2.184 48.6H6.344V52.396ZM54.9392 53.8V85H47.4512V53.8H54.9392ZM67.1072 82.92L68.3032 85H54.8352V82.92H67.1072ZM65.3392 68.516V70.596H54.8352V68.516H65.3392ZM67.6792 53.8V55.88H54.8352V53.8H67.6792ZM70.4352 75.432L68.4592 85H59.4632L61.0752 82.92C62.5659 82.92 63.8832 82.6253 65.0272 82.036C66.2059 81.412 67.2112 80.5453 68.0432 79.436C68.8752 78.292 69.5166 76.9573 69.9672 75.432H70.4352ZM65.3392 70.492V75.068H64.8192V74.652C64.8192 73.508 64.4552 72.5547 63.7272 71.792C63.0339 71.0293 62.0806 70.6307 60.8672 70.596V70.492H65.3392ZM65.3392 64.044V68.62H60.8672V68.516C62.0806 68.4813 63.0339 68.0827 63.7272 67.32C64.4552 66.5227 64.8192 65.552 64.8192 64.408V64.044H65.3392ZM67.6792 55.776V61.288H67.1592V60.82C67.1592 59.2947 66.7432 58.0987 65.9112 57.232C65.1139 56.3653 63.9526 55.9147 62.4272 55.88V55.776H67.6792ZM67.6792 53.02V54.268L62.2192 53.8C63.2246 53.8 64.2819 53.7133 65.3912 53.54C66.5006 53.332 67.2632 53.1587 67.6792 53.02ZM47.5552 81.724L47.8152 85H43.9672V84.48C43.9672 84.48 44.0712 84.48 44.2792 84.48C44.4872 84.48 44.6086 84.48 44.6432 84.48C45.4059 84.48 46.0472 84.22 46.5672 83.7C47.1219 83.1453 47.4166 82.4867 47.4512 81.724H47.5552ZM47.5552 57.076H47.4512C47.4166 56.2787 47.1219 55.62 46.5672 55.1C46.0472 54.58 45.4059 54.32 44.6432 54.32C44.6086 54.32 44.4872 54.32 44.2792 54.32C44.0712 54.32 43.9672 54.32 43.9672 54.32V53.8H47.8152L47.5552 57.076ZM83.9268 53.124C84.6201 53.124 85.4521 53.1587 86.4228 53.228C87.4281 53.2973 88.4161 53.384 89.3868 53.488C90.3574 53.5573 91.2068 53.6613 91.9348 53.8C92.6974 53.904 93.2174 54.008 93.4948 54.112L92.8188 60.456H92.3508C92.3508 58.8613 91.7961 57.596 90.6868 56.66C89.5774 55.724 87.9828 55.256 85.9028 55.256C84.2388 55.256 82.8868 55.62 81.8468 56.348C80.8414 57.076 80.3041 58.0467 80.2348 59.26C80.1654 59.884 80.2694 60.456 80.5468 60.976C80.8588 61.4613 81.2748 61.8947 81.7948 62.276C82.3494 62.6573 82.9561 63.0387 83.6148 63.42L91.7788 68.464C93.1654 69.1573 94.2574 70.1627 95.0548 71.48C95.8521 72.7973 96.1988 74.392 96.0948 76.264C95.9908 78.2053 95.4188 79.8867 94.3788 81.308C93.3734 82.7293 91.9694 83.8213 90.1668 84.584C88.3988 85.312 86.3014 85.676 83.8748 85.676C82.3841 85.676 80.9974 85.5547 79.7148 85.312C78.4321 85.0693 77.3228 84.74 76.3868 84.324C75.4854 83.908 74.7921 83.44 74.3068 82.92C74.0294 82.2267 73.9081 81.3947 73.9428 80.424C73.9774 79.4187 74.1334 78.4307 74.4108 77.46C74.6881 76.4547 75.0348 75.6227 75.4508 74.964H75.8668C75.7628 76.524 76.0401 77.9627 76.6988 79.28C77.3921 80.5973 78.3974 81.6547 79.7148 82.452C81.0321 83.2147 82.6094 83.596 84.4468 83.596C86.4574 83.596 87.9654 83.128 88.9708 82.192C89.9761 81.256 90.4788 80.164 90.4788 78.916C90.4788 77.98 90.1668 77.148 89.5428 76.42C88.9534 75.6573 87.9654 74.912 86.5788 74.184L79.1948 69.504C77.4614 68.6027 76.1961 67.4067 75.3988 65.916C74.6361 64.4253 74.3588 62.796 74.5668 61.028C74.7401 59.364 75.2254 57.9427 76.0228 56.764C76.8548 55.5853 77.9468 54.684 79.2988 54.06C80.6508 53.436 82.1934 53.124 83.9268 53.124ZM93.4948 53.592L93.4428 54.528H87.8788V53.592H93.4948ZM110.748 53.8V85H103.26V53.8H110.748ZM122.916 82.92L124.112 85H110.644V82.92H122.916ZM121.148 68.516V70.596H110.644V68.516H121.148ZM123.488 53.8V55.88H110.644V53.8H123.488ZM126.244 75.432L124.268 85H115.272L116.884 82.92C118.374 82.92 119.692 82.6253 120.836 82.036C122.014 81.412 123.02 80.5453 123.852 79.436C124.684 78.292 125.325 76.9573 125.776 75.432H126.244ZM121.148 70.492V75.068H120.628V74.652C120.628 73.508 120.264 72.5547 119.536 71.792C118.842 71.0293 117.889 70.6307 116.676 70.596V70.492H121.148ZM121.148 64.044V68.62H116.676V68.516C117.889 68.4813 118.842 68.0827 119.536 67.32C120.264 66.5227 120.628 65.552 120.628 64.408V64.044H121.148ZM123.488 55.776V61.288H122.968V60.82C122.968 59.2947 122.552 58.0987 121.72 57.232C120.922 56.3653 119.761 55.9147 118.236 55.88V55.776H123.488ZM123.488 53.02V54.268L118.028 53.8C119.033 53.8 120.09 53.7133 121.2 53.54C122.309 53.332 123.072 53.1587 123.488 53.02ZM103.364 81.724L103.624 85H99.7758V84.48C99.7758 84.48 99.8798 84.48 100.088 84.48C100.296 84.48 100.417 84.48 100.452 84.48C101.214 84.48 101.856 84.22 102.376 83.7C102.93 83.1453 103.225 82.4867 103.26 81.724H103.364ZM103.364 57.076H103.26C103.225 56.2787 102.93 55.62 102.376 55.1C101.856 54.58 101.214 54.32 100.452 54.32C100.417 54.32 100.296 54.32 100.088 54.32C99.8798 54.32 99.7758 54.32 99.7758 54.32V53.8H103.624L103.364 57.076ZM132.091 53.072L162.615 79.904L163.135 85.676L132.663 58.844L132.091 53.072ZM132.299 81.828V85H128.451V84.48C128.451 84.48 128.59 84.48 128.867 84.48C129.145 84.48 129.283 84.48 129.283 84.48C130.081 84.48 130.757 84.2373 131.311 83.752C131.866 83.232 132.143 82.5907 132.143 81.828H132.299ZM139.267 81.828C139.302 82.5907 139.597 83.232 140.151 83.752C140.706 84.2373 141.365 84.48 142.127 84.48C142.127 84.48 142.266 84.48 142.543 84.48C142.855 84.48 143.011 84.48 143.011 84.48V85H139.163V81.828H139.267ZM132.091 53.072L139.267 60.872V85H132.143V59C132.143 57.232 132.057 55.8107 131.883 54.736C131.71 53.6267 131.623 53.072 131.623 53.072H132.091ZM163.083 53.8V79.592C163.083 80.8053 163.118 81.88 163.187 82.816C163.291 83.7173 163.378 84.428 163.447 84.948C163.551 85.4333 163.603 85.676 163.603 85.676H163.135L155.959 77.408V53.8H163.083ZM162.927 56.972V53.8H166.827V54.32C166.827 54.32 166.671 54.32 166.359 54.32C166.082 54.32 165.943 54.32 165.943 54.32C165.181 54.32 164.505 54.58 163.915 55.1C163.361 55.5853 163.083 56.2093 163.083 56.972H162.927ZM155.959 56.972C155.925 56.2093 155.63 55.5853 155.075 55.1C154.555 54.58 153.897 54.32 153.099 54.32C153.099 54.32 152.943 54.32 152.631 54.32C152.354 54.32 152.215 54.32 152.215 54.32V53.8H156.063V56.972H155.959ZM184.627 85.676L169.339 54.06H178.179L187.643 76.108L184.627 85.676ZM184.627 85.676L184.419 79.592L195.703 53.956H199.499L187.487 79.332C187.417 79.5053 187.261 79.8693 187.019 80.424C186.776 80.944 186.516 81.5507 186.239 82.244C185.961 82.9027 185.701 83.544 185.459 84.168C185.251 84.792 185.129 85.2947 185.095 85.676H184.627ZM194.247 57.232C194.628 56.296 194.576 55.568 194.091 55.048C193.64 54.528 193.103 54.268 192.479 54.268H192.115V53.8H202.463V54.32C202.463 54.32 202.393 54.32 202.255 54.32C202.116 54.32 202.047 54.32 202.047 54.32C201.353 54.32 200.625 54.5453 199.863 54.996C199.1 55.412 198.459 56.1573 197.939 57.232H194.247ZM179.531 57.232H170.899C170.379 56.1573 169.737 55.412 168.975 54.996C168.247 54.5453 167.536 54.32 166.843 54.32C166.843 54.32 166.791 54.32 166.687 54.32C166.548 54.32 166.479 54.32 166.479 54.32V53.8H181.715V54.268H181.299C180.744 54.268 180.224 54.528 179.739 55.048C179.253 55.568 179.184 56.296 179.531 57.232ZM220.102 53.124C222.875 53.124 225.388 53.5053 227.642 54.268C229.895 54.996 231.836 56.0707 233.466 57.492C235.095 58.9133 236.343 60.6293 237.21 62.64C238.111 64.6507 238.562 66.9213 238.562 69.452C238.562 71.948 238.111 74.2013 237.21 76.212C236.343 78.188 235.095 79.8867 233.466 81.308C231.836 82.7293 229.895 83.8213 227.642 84.584C225.388 85.312 222.875 85.676 220.102 85.676C217.363 85.676 214.867 85.312 212.614 84.584C210.36 83.8213 208.419 82.7293 206.79 81.308C205.16 79.8867 203.912 78.188 203.046 76.212C202.179 74.2013 201.746 71.948 201.746 69.452C201.746 66.9213 202.179 64.6507 203.046 62.64C203.912 60.6293 205.16 58.9133 206.79 57.492C208.419 56.0707 210.36 54.996 212.614 54.268C214.867 53.5053 217.363 53.124 220.102 53.124ZM220.102 83.648C222.216 83.648 224.054 83.076 225.614 81.932C227.208 80.7533 228.422 79.1067 229.254 76.992C230.12 74.8773 230.554 72.364 230.554 69.452C230.554 66.5053 230.12 63.9747 229.254 61.86C228.422 59.7107 227.208 58.064 225.614 56.92C224.054 55.7413 222.216 55.152 220.102 55.152C218.022 55.152 216.202 55.7413 214.642 56.92C213.082 58.064 211.868 59.7107 211.002 61.86C210.135 63.9747 209.702 66.5053 209.702 69.452C209.702 72.364 210.135 74.8773 211.002 76.992C211.868 79.1067 213.082 80.7533 214.642 81.932C216.202 83.076 218.022 83.648 220.102 83.648ZM252.478 53.8V85H244.99V53.8H252.478ZM264.594 82.92L265.842 85H252.374V82.92H264.594ZM268.026 75.432L265.998 85H257.002L258.614 82.92C260.105 82.92 261.422 82.6253 262.566 82.036C263.745 81.412 264.75 80.5453 265.582 79.436C266.414 78.292 267.056 76.9573 267.506 75.432H268.026ZM245.094 81.724L245.354 85H241.506V84.48C241.506 84.48 241.61 84.48 241.818 84.48C242.026 84.48 242.148 84.48 242.182 84.48C242.945 84.48 243.586 84.22 244.106 83.7C244.661 83.1453 244.956 82.4867 244.99 81.724H245.094ZM252.374 57.076V53.8H255.962V54.32C255.928 54.32 255.806 54.32 255.598 54.32C255.425 54.32 255.338 54.32 255.338 54.32C254.576 54.32 253.917 54.58 253.362 55.1C252.808 55.62 252.513 56.2787 252.478 57.076H252.374ZM245.094 57.076H244.99C244.956 56.2787 244.661 55.62 244.106 55.1C243.552 54.58 242.893 54.32 242.13 54.32C242.096 54.32 241.974 54.32 241.766 54.32C241.593 54.32 241.506 54.32 241.506 54.32V53.8H245.094V57.076ZM281.162 85.676L265.874 54.06H274.714L284.178 76.108L281.162 85.676ZM281.162 85.676L280.954 79.592L292.238 53.956H296.034L284.022 79.332C283.953 79.5053 283.797 79.8693 283.554 80.424C283.311 80.944 283.051 81.5507 282.774 82.244C282.497 82.9027 282.237 83.544 281.994 84.168C281.786 84.792 281.665 85.2947 281.63 85.676H281.162ZM290.782 57.232C291.163 56.296 291.111 55.568 290.626 55.048C290.175 54.528 289.638 54.268 289.014 54.268H288.65V53.8H298.998V54.32C298.998 54.32 298.929 54.32 298.79 54.32C298.651 54.32 298.582 54.32 298.582 54.32C297.889 54.32 297.161 54.5453 296.398 54.996C295.635 55.412 294.994 56.1573 294.474 57.232H290.782ZM276.066 57.232H267.434C266.914 56.1573 266.273 55.412 265.51 54.996C264.782 54.5453 264.071 54.32 263.378 54.32C263.378 54.32 263.326 54.32 263.222 54.32C263.083 54.32 263.014 54.32 263.014 54.32V53.8H278.25V54.268H277.834C277.279 54.268 276.759 54.528 276.274 55.048C275.789 55.568 275.719 56.296 276.066 57.232ZM310.728 53.8V85H303.24V53.8H310.728ZM303.396 81.724V85H299.6V84.48C299.6 84.48 299.704 84.48 299.912 84.48C300.12 84.48 300.241 84.48 300.276 84.48C301.073 84.48 301.767 84.22 302.356 83.7C302.945 83.1453 303.24 82.4867 303.24 81.724H303.396ZM310.624 81.724H310.728C310.763 82.4867 311.057 83.1453 311.612 83.7C312.201 84.22 312.912 84.48 313.744 84.48C313.744 84.48 313.831 84.48 314.004 84.48C314.212 84.48 314.333 84.48 314.368 84.48V85H310.624V81.724ZM310.624 57.076V53.8H314.368L314.316 54.32C314.316 54.32 314.229 54.32 314.056 54.32C313.883 54.32 313.779 54.32 313.744 54.32C312.912 54.32 312.201 54.58 311.612 55.1C311.057 55.62 310.763 56.2787 310.728 57.076H310.624ZM303.396 57.076H303.24C303.24 56.2787 302.945 55.62 302.356 55.1C301.767 54.58 301.056 54.32 300.224 54.32C300.224 54.32 300.12 54.32 299.912 54.32C299.704 54.32 299.6 54.32 299.6 54.32V53.8H303.396V57.076ZM335.101 53.8C338.81 53.8 341.999 54.424 344.669 55.672C347.338 56.8853 349.383 58.6707 350.805 61.028C352.226 63.3507 352.937 66.1413 352.937 69.4C352.937 72.6587 352.226 75.4493 350.805 77.772C349.383 80.0947 347.338 81.88 344.669 83.128C341.999 84.376 338.81 85 335.101 85H323.557L323.453 82.92C326.087 82.92 328.202 82.92 329.797 82.92C331.426 82.92 332.605 82.92 333.333 82.92C334.095 82.92 334.477 82.92 334.477 82.92C337.735 82.92 340.301 81.724 342.173 79.332C344.045 76.94 344.981 73.6293 344.981 69.4C344.981 65.1707 344.045 61.86 342.173 59.468C340.301 57.0413 337.735 55.828 334.477 55.828C334.477 55.828 334.095 55.828 333.333 55.828C332.57 55.828 331.339 55.828 329.641 55.828C327.942 55.828 325.706 55.828 322.933 55.828V53.8H335.101ZM328.601 53.8V85H321.113V53.8H328.601ZM321.269 81.672V85H317.525V84.48C317.525 84.48 317.629 84.48 317.837 84.48C318.045 84.48 318.166 84.48 318.201 84.48C318.998 84.48 319.674 84.2027 320.229 83.648C320.818 83.0933 321.113 82.4347 321.113 81.672H321.269ZM321.217 57.076H321.113C321.078 56.2787 320.766 55.62 320.177 55.1C319.622 54.58 318.946 54.32 318.149 54.32C318.149 54.32 318.045 54.32 317.837 54.32C317.629 54.32 317.525 54.32 317.525 54.32V53.8H321.217V57.076ZM375.492 53.124C378.266 53.124 380.779 53.5053 383.032 54.268C385.286 54.996 387.227 56.0707 388.856 57.492C390.486 58.9133 391.734 60.6293 392.6 62.64C393.502 64.6507 393.952 66.9213 393.952 69.452C393.952 71.948 393.502 74.2013 392.6 76.212C391.734 78.188 390.486 79.8867 388.856 81.308C387.227 82.7293 385.286 83.8213 383.032 84.584C380.779 85.312 378.266 85.676 375.492 85.676C372.754 85.676 370.258 85.312 368.004 84.584C365.751 83.8213 363.81 82.7293 362.18 81.308C360.551 79.8867 359.303 78.188 358.436 76.212C357.57 74.2013 357.136 71.948 357.136 69.452C357.136 66.9213 357.57 64.6507 358.436 62.64C359.303 60.6293 360.551 58.9133 362.18 57.492C363.81 56.0707 365.751 54.996 368.004 54.268C370.258 53.5053 372.754 53.124 375.492 53.124ZM375.492 83.648C377.607 83.648 379.444 83.076 381.004 81.932C382.599 80.7533 383.812 79.1067 384.644 76.992C385.511 74.8773 385.944 72.364 385.944 69.452C385.944 66.5053 385.511 63.9747 384.644 61.86C383.812 59.7107 382.599 58.064 381.004 56.92C379.444 55.7413 377.607 55.152 375.492 55.152C373.412 55.152 371.592 55.7413 370.032 56.92C368.472 58.064 367.259 59.7107 366.392 61.86C365.526 63.9747 365.092 66.5053 365.092 69.452C365.092 72.364 365.526 74.8773 366.392 76.992C367.259 79.1067 368.472 80.7533 370.032 81.932C371.592 83.076 373.412 83.648 375.492 83.648ZM420.906 53.8H425.898C428.706 53.8 430.977 54.1813 432.71 54.944C434.444 55.7067 435.744 56.7467 436.61 58.064C437.477 59.3467 437.945 60.8027 438.014 62.432C438.084 64.4773 437.668 66.2627 436.766 67.788C435.9 69.3133 434.721 70.4747 433.23 71.272C431.74 72.0693 430.11 72.4333 428.342 72.364C426.574 72.26 424.824 71.636 423.09 70.492V70.024C423.09 70.024 423.264 70.024 423.61 70.024C423.992 70.024 424.46 69.972 425.014 69.868C425.569 69.7293 426.141 69.4867 426.73 69.14C427.354 68.7933 427.944 68.2733 428.498 67.58C429.053 66.8867 429.486 65.9507 429.798 64.772C429.902 64.356 429.972 63.9053 430.006 63.42C430.076 62.9 430.093 62.4493 430.058 62.068C430.024 60.1613 429.452 58.6533 428.342 57.544C427.268 56.4 425.76 55.828 423.818 55.828H421.374C421.374 55.828 421.34 55.672 421.27 55.36C421.201 55.0133 421.114 54.6667 421.01 54.32C420.941 53.9733 420.906 53.8 420.906 53.8ZM421.478 53.8V85H413.99V53.8H421.478ZM414.094 81.724L414.302 85H410.558V84.48C410.593 84.48 410.697 84.48 410.87 84.48C411.044 84.48 411.148 84.48 411.182 84.48C411.945 84.48 412.586 84.22 413.106 83.7C413.661 83.1453 413.956 82.4867 413.99 81.724H414.094ZM414.094 57.024H413.99C413.956 56.2267 413.661 55.5853 413.106 55.1C412.586 54.58 411.945 54.32 411.182 54.32C411.113 54.32 410.992 54.32 410.818 54.32C410.68 54.32 410.576 54.32 410.506 54.32V53.8H414.302L414.094 57.024ZM421.374 81.724H421.478C421.513 82.4867 421.79 83.1453 422.31 83.7C422.83 84.22 423.489 84.48 424.286 84.48C424.356 84.48 424.46 84.48 424.598 84.48C424.772 84.48 424.876 84.48 424.91 84.48V85H421.114L421.374 81.724ZM460.094 53.124C462.867 53.124 465.381 53.5053 467.634 54.268C469.887 54.996 471.829 56.0707 473.458 57.492C475.087 58.9133 476.335 60.6293 477.202 62.64C478.103 64.6507 478.554 66.9213 478.554 69.452C478.554 71.948 478.103 74.2013 477.202 76.212C476.335 78.188 475.087 79.8867 473.458 81.308C471.829 82.7293 469.887 83.8213 467.634 84.584C465.381 85.312 462.867 85.676 460.094 85.676C457.355 85.676 454.859 85.312 452.606 84.584C450.353 83.8213 448.411 82.7293 446.782 81.308C445.153 79.8867 443.905 78.188 443.038 76.212C442.171 74.2013 441.738 71.948 441.738 69.452C441.738 66.9213 442.171 64.6507 443.038 62.64C443.905 60.6293 445.153 58.9133 446.782 57.492C448.411 56.0707 450.353 54.996 452.606 54.268C454.859 53.5053 457.355 53.124 460.094 53.124ZM460.094 83.648C462.209 83.648 464.046 83.076 465.606 81.932C467.201 80.7533 468.414 79.1067 469.246 76.992C470.113 74.8773 470.546 72.364 470.546 69.452C470.546 66.5053 470.113 63.9747 469.246 61.86C468.414 59.7107 467.201 58.064 465.606 56.92C464.046 55.7413 462.209 55.152 460.094 55.152C458.014 55.152 456.194 55.7413 454.634 56.92C453.074 58.064 451.861 59.7107 450.994 61.86C450.127 63.9747 449.694 66.5053 449.694 69.452C449.694 72.364 450.127 74.8773 450.994 76.992C451.861 79.1067 453.074 80.7533 454.634 81.932C456.194 83.076 458.014 83.648 460.094 83.648ZM492.262 53.8H497.878C499.3 53.8 500.686 53.956 502.038 54.268C503.39 54.5453 504.604 55.0133 505.678 55.672C506.753 56.296 507.602 57.1627 508.226 58.272C508.885 59.3467 509.214 60.6987 509.214 62.328C509.214 63.5413 508.954 64.7547 508.434 65.968C507.949 67.1467 507.169 68.1693 506.094 69.036C505.054 69.9027 503.685 70.4747 501.986 70.752C502.992 71.064 503.945 71.6707 504.846 72.572C505.782 73.4733 506.51 74.3227 507.03 75.12C507.169 75.3973 507.412 75.848 507.758 76.472C508.105 77.0613 508.538 77.7547 509.058 78.552C509.613 79.3147 510.185 80.112 510.774 80.944C511.468 81.88 512.074 82.608 512.594 83.128C513.114 83.6133 513.652 83.96 514.206 84.168C514.761 84.376 515.402 84.48 516.13 84.48V85H511.762C509.89 85 508.296 84.8613 506.978 84.584C505.696 84.3067 504.569 83.804 503.598 83.076C502.662 82.3133 501.796 81.2907 500.998 80.008C500.686 79.5573 500.357 79.02 500.01 78.396C499.664 77.7373 499.317 77.0787 498.97 76.42C498.624 75.7613 498.312 75.12 498.034 74.496C497.792 73.872 497.618 73.352 497.514 72.936C497.064 71.8267 496.544 71.0293 495.954 70.544C495.4 70.024 494.88 69.764 494.394 69.764V69.296C494.394 69.296 494.516 69.296 494.758 69.296C495.001 69.296 495.313 69.296 495.694 69.296C496.422 69.296 497.133 69.1747 497.826 68.932C498.554 68.6547 499.213 68.152 499.802 67.424C500.392 66.6613 500.825 65.552 501.102 64.096C501.172 63.888 501.224 63.5933 501.258 63.212C501.328 62.8307 501.345 62.3973 501.31 61.912C501.241 60.6293 500.998 59.6067 500.582 58.844C500.201 58.0467 499.716 57.4573 499.126 57.076C498.537 56.66 497.93 56.3827 497.306 56.244C496.717 56.0707 496.197 55.984 495.746 55.984C495.088 55.9493 494.481 55.9493 493.926 55.984C493.406 55.984 493.008 55.9667 492.73 55.932C492.696 55.932 492.644 55.7587 492.574 55.412C492.505 55.0307 492.436 54.6667 492.366 54.32C492.297 53.9733 492.262 53.8 492.262 53.8ZM492.782 53.8V85H485.242V53.8H492.782ZM485.398 81.724L485.606 85H481.862V84.48C481.897 84.48 481.984 84.48 482.122 84.48C482.296 84.48 482.417 84.48 482.486 84.48C483.249 84.48 483.89 84.22 484.41 83.7C484.965 83.1453 485.26 82.4867 485.294 81.724H485.398ZM485.398 57.024H485.294C485.26 56.2267 484.965 55.5853 484.41 55.1C483.89 54.58 483.266 54.32 482.538 54.32C482.434 54.32 482.296 54.32 482.122 54.32C481.984 54.32 481.897 54.32 481.862 54.32V53.8H485.606L485.398 57.024ZM492.678 81.724H492.782C492.782 82.5907 493.077 83.2667 493.666 83.752C494.29 84.2373 494.949 84.48 495.642 84.48C495.642 84.48 495.712 84.48 495.85 84.48C495.989 84.48 496.093 84.48 496.162 84.48V85H492.418L492.678 81.724Z" fill="white"/>
<g filter="url(#filter0_d_88_6)">
<path d="M540.926 30.1818V21.2727L529 29.2727L540.926 30.1818Z" fill="#C811BC" fill-opacity="0.5" shape-rendering="crispEdges"/>
<path d="M546.813 50.1818V19.4545H558.739L584.704 41.4545L573.382 50.1818H546.813Z" fill="#C811BC" fill-opacity="0.5" shape-rendering="crispEdges"/>
<path d="M610.367 100.545L550.134 54.3636H633.011L610.367 100.545Z" fill="#C811BC" fill-opacity="0.5" shape-rendering="crispEdges"/>
<path d="M633.766 9.81818L580.779 50.1818L633.766 50.3636V9.81818Z" fill="#C811BC" fill-opacity="0.5" shape-rendering="crispEdges"/>
<path d="M633.766 126V63.8182L607.348 115.636L633.766 126Z" fill="#C811BC" fill-opacity="0.5" shape-rendering="crispEdges"/>
<path d="M638.748 47.4545V6L698.377 7.09091L638.748 47.4545Z" fill="#C811BC" fill-opacity="0.5" shape-rendering="crispEdges"/>
<path d="M694.452 14.3636L676.941 26.5455L702 16.1818L694.452 14.3636Z" fill="#C811BC" fill-opacity="0.5" shape-rendering="crispEdges"/>
</g>
<path d="M681.912 66.56L682.312 65.52C682.792 65.52 683.419 65.6133 684.192 65.8C684.992 65.9867 685.912 66.24 686.952 66.56C687.992 66.9067 689.139 67.32 690.392 67.8C691.672 68.28 693.032 68.8133 694.472 69.4C695.912 69.9867 697.432 70.6267 699.032 71.32C700.526 71.96 702.139 72.4267 703.872 72.72C705.632 73.04 707.406 73.1467 709.192 73.04C710.979 72.9333 712.672 72.5733 714.272 71.96C715.899 71.3733 717.326 70.5067 718.552 69.36L718.712 69.56C718.526 70.0667 718.072 70.68 717.352 71.4C716.659 72.1467 715.726 72.8533 714.552 73.52C713.379 74.2133 711.992 74.7467 710.392 75.12C708.819 75.52 707.046 75.64 705.072 75.48C703.126 75.32 701.006 74.7467 698.712 73.76C697.486 73.2267 696.179 72.6 694.792 71.88C693.406 71.16 691.979 70.44 690.512 69.72C689.046 69 687.579 68.3467 686.112 67.76C684.672 67.2 683.272 66.8 681.912 66.56ZM682.352 37.44C685.179 37.44 687.659 38.0533 689.792 39.28C691.952 40.48 693.632 42.1733 694.832 44.36C696.059 46.5467 696.672 49.0933 696.672 52C696.672 54.9067 696.059 57.4533 694.832 59.64C693.632 61.8267 691.952 63.5333 689.792 64.76C687.632 65.96 685.152 66.56 682.352 66.56C679.526 66.56 677.032 65.96 674.872 64.76C672.712 63.5333 671.019 61.8267 669.792 59.64C668.592 57.4533 667.992 54.9067 667.992 52C667.992 49.0933 668.592 46.5467 669.792 44.36C671.019 42.1733 672.712 40.48 674.872 39.28C677.032 38.0533 679.526 37.44 682.352 37.44ZM682.352 65.36C684.619 65.36 686.592 64.8 688.272 63.68C689.979 62.56 691.299 61 692.232 59C693.192 57 693.672 54.6667 693.672 52C693.672 49.3333 693.192 47 692.232 45C691.299 43 689.979 41.44 688.272 40.32C686.592 39.2 684.619 38.64 682.352 38.64C680.086 38.64 678.099 39.2 676.392 40.32C674.686 41.44 673.352 43 672.392 45C671.459 47 670.992 49.3333 670.992 52C670.992 54.6667 671.472 57 672.432 59C673.392 61 674.726 62.56 676.432 63.68C678.139 64.8 680.112 65.36 682.352 65.36ZM704.549 42V57.12C704.549 59.7067 705.202 61.7467 706.509 63.24C707.842 64.7333 709.655 65.48 711.949 65.48C714.482 65.48 716.469 64.7733 717.909 63.36C719.375 61.9467 720.109 60.0133 720.109 57.56V42H721.949V57.56C721.949 60.3333 721.055 62.5333 719.269 64.16C717.509 65.76 715.082 66.56 711.989 66.56C708.922 66.56 706.482 65.76 704.669 64.16C702.882 62.56 701.989 60.3733 701.989 57.6V42H704.549ZM702.069 42V44.12H701.989C701.962 43.64 701.762 43.24 701.389 42.92C701.042 42.5733 700.602 42.4 700.069 42.4C700.069 42.4 699.962 42.4 699.749 42.4C699.562 42.4 699.469 42.4 699.469 42.4V42H702.069ZM707.069 42V42.4C707.069 42.4 706.962 42.4 706.749 42.4C706.562 42.4 706.469 42.4 706.469 42.4C705.962 42.4 705.509 42.5733 705.109 42.92C704.735 43.24 704.549 43.64 704.549 44.12H704.469V42H707.069ZM720.189 42V44.12H720.109C720.109 43.64 719.922 43.24 719.549 42.92C719.175 42.5733 718.722 42.4 718.189 42.4C718.189 42.4 718.082 42.4 717.869 42.4C717.682 42.4 717.589 42.4 717.589 42.4V42H720.189ZM724.469 42V42.4C724.469 42.4 724.362 42.4 724.149 42.4C723.962 42.4 723.869 42.4 723.869 42.4C723.362 42.4 722.922 42.5733 722.549 42.92C722.175 43.24 721.975 43.64 721.949 44.12H721.869V42H724.469ZM732.317 42V66H729.757V42H732.317ZM743.077 64.76L742.997 66H732.237V64.76H743.077ZM741.197 53.4V54.6H732.237V53.4H741.197ZM743.037 42V43.24H732.237V42H743.037ZM745.317 60.28L743.117 66H737.037L738.397 64.76C739.73 64.76 740.797 64.5733 741.597 64.2C742.423 63.8 743.09 63.2667 743.597 62.6C744.103 61.9067 744.543 61.1333 744.917 60.28H745.317ZM741.197 54.52V56.8H740.757V56.28C740.757 55.8267 740.623 55.44 740.357 55.12C740.09 54.7733 739.677 54.6 739.117 54.6V54.52H741.197ZM741.197 51.2V53.48H739.117V53.4C739.677 53.4 740.09 53.24 740.357 52.92C740.623 52.5733 740.757 52.1733 740.757 51.72V51.2H741.197ZM743.037 43.12V45.88H742.597V45.28C742.597 44.72 742.41 44.24 742.037 43.84C741.69 43.44 741.21 43.24 740.597 43.24V43.12H743.037ZM743.037 41.36V42.4L738.477 42C739.303 42 740.183 41.9333 741.117 41.8C742.05 41.64 742.69 41.4933 743.037 41.36ZM729.837 63.44L730.357 66H726.877V65.6C726.877 65.6 726.97 65.6 727.157 65.6C727.343 65.6 727.437 65.6 727.437 65.6C728.103 65.6 728.65 65.3867 729.077 64.96C729.503 64.5333 729.73 64.0267 729.757 63.44H729.837ZM729.837 44.52H729.757C729.73 43.9067 729.503 43.4 729.077 43C728.65 42.6 728.103 42.4 727.437 42.4C727.437 42.4 727.343 42.4 727.157 42.4C726.97 42.4 726.877 42.4 726.877 42.4V42H730.357L729.837 44.52ZM752.002 42H757.162C758.415 42 759.535 42.1467 760.522 42.44C761.535 42.7333 762.389 43.16 763.082 43.72C763.802 44.28 764.349 44.96 764.722 45.76C765.095 46.56 765.282 47.4667 765.282 48.48C765.282 49.6 765.015 50.64 764.482 51.6C763.949 52.56 763.202 53.3467 762.242 53.96C761.309 54.5733 760.242 54.9467 759.042 55.08C759.495 55.2667 760.015 55.68 760.602 56.32C761.215 56.96 761.735 57.5867 762.162 58.2C762.162 58.2 762.335 58.44 762.682 58.92C763.029 59.3733 763.469 59.9467 764.002 60.64C764.562 61.3067 765.109 61.9467 765.642 62.56C766.202 63.1733 766.709 63.7067 767.162 64.16C767.642 64.6133 768.149 64.9733 768.682 65.24C769.242 65.48 769.882 65.6 770.602 65.6V66H769.362C767.895 66 766.682 65.8133 765.722 65.44C764.789 65.0667 764.029 64.6133 763.442 64.08C762.855 63.52 762.349 62.9867 761.922 62.48C761.815 62.3467 761.562 62.0133 761.162 61.48C760.789 60.92 760.375 60.32 759.922 59.68C759.469 59.04 759.055 58.4667 758.682 57.96C758.309 57.4267 758.082 57.1067 758.002 57C757.469 56.3067 756.855 55.6933 756.162 55.16C755.469 54.6 754.735 54.32 753.962 54.32V53.92C753.962 53.92 754.175 53.9333 754.602 53.96C755.029 53.96 755.575 53.9467 756.242 53.92C756.989 53.8933 757.735 53.84 758.482 53.76C759.229 53.6533 759.922 53.36 760.562 52.88C761.229 52.4 761.749 51.6 762.122 50.48C762.229 50.1867 762.309 49.84 762.362 49.44C762.415 49.04 762.429 48.6267 762.402 48.2C762.375 47.4533 762.229 46.7867 761.962 46.2C761.722 45.6133 761.362 45.1067 760.882 44.68C760.429 44.2533 759.882 43.92 759.242 43.68C758.602 43.44 757.882 43.3067 757.082 43.28C755.829 43.2267 754.735 43.2133 753.802 43.24C752.869 43.2667 752.402 43.2667 752.402 43.24C752.402 43.2133 752.362 43.1067 752.282 42.92C752.229 42.7067 752.162 42.5067 752.082 42.32C752.029 42.1067 752.002 42 752.002 42ZM752.482 42V66H749.922V42H752.482ZM750.042 63.44L750.522 66H747.122V65.6C747.122 65.6 747.215 65.6 747.402 65.6C747.589 65.6 747.682 65.6 747.682 65.6C748.322 65.6 748.855 65.3867 749.282 64.96C749.709 64.5333 749.935 64.0267 749.962 63.44H750.042ZM750.042 44.52H749.962C749.935 43.9067 749.709 43.4 749.282 43C748.855 42.6 748.322 42.4 747.682 42.4C747.682 42.4 747.589 42.4 747.402 42.4C747.215 42.4 747.122 42.4 747.122 42.4V42H750.522L750.042 44.52ZM752.362 63.44H752.482C752.509 64.0267 752.735 64.5333 753.162 64.96C753.589 65.3867 754.122 65.6 754.762 65.6C754.762 65.6 754.842 65.6 755.002 65.6C755.189 65.6 755.282 65.6 755.282 65.6L755.322 66H751.882L752.362 63.44ZM776.44 42V66H773.88V42H776.44ZM787.2 64.76L787.12 66H776.36V64.76H787.2ZM785.32 53.4V54.6H776.36V53.4H785.32ZM787.16 42V43.24H776.36V42H787.16ZM789.44 60.28L787.24 66H781.16L782.52 64.76C783.853 64.76 784.92 64.5733 785.72 64.2C786.547 63.8 787.213 63.2667 787.72 62.6C788.227 61.9067 788.667 61.1333 789.04 60.28H789.44ZM785.32 54.52V56.8H784.88V56.28C784.88 55.8267 784.747 55.44 784.48 55.12C784.213 54.7733 783.8 54.6 783.24 54.6V54.52H785.32ZM785.32 51.2V53.48H783.24V53.4C783.8 53.4 784.213 53.24 784.48 52.92C784.747 52.5733 784.88 52.1733 784.88 51.72V51.2H785.32ZM787.16 43.12V45.88H786.72V45.28C786.72 44.72 786.533 44.24 786.16 43.84C785.813 43.44 785.333 43.24 784.72 43.24V43.12H787.16ZM787.16 41.36V42.4L782.6 42C783.427 42 784.307 41.9333 785.24 41.8C786.173 41.64 786.813 41.4933 787.16 41.36ZM773.96 63.44L774.48 66H771V65.6C771 65.6 771.093 65.6 771.28 65.6C771.467 65.6 771.56 65.6 771.56 65.6C772.227 65.6 772.773 65.3867 773.2 64.96C773.627 64.5333 773.853 64.0267 773.88 63.44H773.96ZM773.96 44.52H773.88C773.853 43.9067 773.627 43.4 773.2 43C772.773 42.6 772.227 42.4 771.56 42.4C771.56 42.4 771.467 42.4 771.28 42.4C771.093 42.4 771 42.4 771 42.4V42H774.48L773.96 44.52ZM793.756 41.4L815.916 62.28L816.316 66.56L794.156 45.56L793.756 41.4ZM793.836 63.52V66H790.836V65.6C790.836 65.6 790.943 65.6 791.156 65.6C791.396 65.6 791.516 65.6 791.516 65.6C792.129 65.6 792.649 65.4 793.076 65C793.503 64.6 793.716 64.1067 793.716 63.52H793.836ZM795.516 63.52C795.516 64.1067 795.729 64.6 796.156 65C796.609 65.4 797.129 65.6 797.716 65.6C797.716 65.6 797.823 65.6 798.036 65.6C798.276 65.6 798.396 65.6 798.396 65.6V66H795.396V63.52H795.516ZM793.756 41.4L795.476 43.64L795.516 66H793.716V46.4C793.716 45.04 793.649 43.8667 793.516 42.88C793.409 41.8933 793.356 41.4 793.356 41.4H793.756ZM816.316 42V61.44C816.316 62.2933 816.343 63.12 816.396 63.92C816.449 64.6933 816.503 65.3333 816.556 65.84C816.636 66.32 816.676 66.56 816.676 66.56H816.316L814.556 64.44V42H816.316ZM816.196 44.48V42H819.196V42.4C819.196 42.4 819.076 42.4 818.836 42.4C818.623 42.4 818.516 42.4 818.516 42.4C817.929 42.4 817.409 42.6 816.956 43C816.529 43.4 816.316 43.8933 816.316 44.48H816.196ZM814.556 44.48C814.529 43.8933 814.303 43.4 813.876 43C813.449 42.6 812.929 42.4 812.316 42.4C812.316 42.4 812.196 42.4 811.956 42.4C811.743 42.4 811.636 42.4 811.636 42.4V42H814.636V44.48H814.556ZM719.138 79V107H710.938V79H719.138ZM700.178 79V107H691.978V79H700.178ZM711.298 92V94H699.778V92H711.298ZM692.098 104.08V107H688.898V106.6C688.898 106.6 688.978 106.6 689.138 106.6C689.325 106.6 689.418 106.6 689.418 106.6C690.112 106.6 690.698 106.36 691.178 105.88C691.685 105.373 691.952 104.773 691.978 104.08H692.098ZM692.098 81.92H691.978C691.952 81.2267 691.685 80.64 691.178 80.16C690.698 79.6533 690.112 79.4 689.418 79.4C689.418 79.4 689.325 79.4 689.138 79.4C688.978 79.4 688.898 79.4 688.898 79.4V79H692.098V81.92ZM700.058 104.08H700.178C700.205 104.773 700.458 105.373 700.938 105.88C701.445 106.36 702.045 106.6 702.738 106.6C702.738 106.6 702.818 106.6 702.978 106.6C703.138 106.6 703.232 106.6 703.258 106.6V107H700.058V104.08ZM700.058 81.92V79H703.258V79.4C703.232 79.4 703.138 79.4 702.978 79.4C702.818 79.4 702.738 79.4 702.738 79.4C702.045 79.4 701.445 79.6533 700.938 80.16C700.458 80.64 700.205 81.2267 700.178 81.92H700.058ZM711.058 104.08V107H707.858V106.6C707.885 106.6 707.978 106.6 708.138 106.6C708.298 106.6 708.378 106.6 708.378 106.6C709.072 106.6 709.672 106.36 710.178 105.88C710.685 105.373 710.938 104.773 710.938 104.08H711.058ZM711.058 81.92H710.938C710.938 81.2267 710.685 80.64 710.178 80.16C709.672 79.6533 709.072 79.4 708.378 79.4C708.378 79.4 708.298 79.4 708.138 79.4C707.978 79.4 707.885 79.4 707.858 79.4V79H711.058V81.92ZM719.018 104.08H719.138C719.165 104.773 719.418 105.373 719.898 105.88C720.405 106.36 721.005 106.6 721.698 106.6C721.698 106.6 721.778 106.6 721.938 106.6C722.125 106.6 722.218 106.6 722.218 106.6V107H719.018V104.08ZM719.018 81.92V79H722.218V79.4C722.218 79.4 722.125 79.4 721.938 79.4C721.778 79.4 721.698 79.4 721.698 79.4C721.005 79.4 720.405 79.6533 719.898 80.16C719.418 80.64 719.165 81.2267 719.138 81.92H719.018ZM737.176 82.52C739.469 82.52 741.509 82.8 743.296 83.36C745.109 83.92 746.642 84.7333 747.896 85.8C749.176 86.8667 750.136 88.1733 750.776 89.72C751.442 91.2667 751.776 93.04 751.776 95.04C751.776 97.0133 751.442 98.7733 750.776 100.32C750.136 101.84 749.176 103.133 747.896 104.2C746.642 105.267 745.109 106.08 743.296 106.64C741.509 107.2 739.469 107.48 737.176 107.48C734.909 107.48 732.869 107.2 731.056 106.64C729.269 106.08 727.736 105.267 726.456 104.2C725.202 103.133 724.242 101.84 723.576 100.32C722.936 98.7733 722.616 97.0133 722.616 95.04C722.616 93.04 722.936 91.2667 723.576 89.72C724.242 88.1733 725.202 86.8667 726.456 85.8C727.736 84.7333 729.269 83.92 731.056 83.36C732.869 82.8 734.909 82.52 737.176 82.52ZM737.176 105.68C738.589 105.68 739.762 105.267 740.696 104.44C741.656 103.587 742.376 102.373 742.856 100.8C743.336 99.2 743.576 97.28 743.576 95.04C743.576 92.7733 743.336 90.84 742.856 89.24C742.376 87.64 741.656 86.4267 740.696 85.6C739.762 84.7467 738.589 84.32 737.176 84.32C735.789 84.32 734.616 84.7467 733.656 85.6C732.722 86.4267 732.002 87.64 731.496 89.24C731.016 90.84 730.776 92.7733 730.776 95.04C730.776 97.28 731.016 99.2 731.496 100.8C732.002 102.373 732.722 103.587 733.656 104.44C734.616 105.267 735.789 105.68 737.176 105.68ZM761.997 83H765.477C767.797 83 769.624 83.3067 770.957 83.92C772.29 84.5333 773.25 85.3333 773.837 86.32C774.45 87.3067 774.797 88.36 774.877 89.48C774.984 91.1067 774.69 92.5333 773.997 93.76C773.33 94.9867 772.41 95.9333 771.237 96.6C770.09 97.24 768.824 97.5067 767.437 97.4C766.077 97.2933 764.757 96.7333 763.477 95.72V95.4C763.477 95.4 763.557 95.3733 763.717 95.32C763.877 95.2667 764.077 95.1733 764.317 95.04C764.584 94.88 764.85 94.6533 765.117 94.36C765.41 94.0667 765.677 93.68 765.917 93.2C766.184 92.72 766.384 92.1067 766.517 91.36C766.597 90.9867 766.65 90.6133 766.677 90.24C766.73 89.8667 766.744 89.5467 766.717 89.28C766.637 87.92 766.264 86.84 765.597 86.04C764.957 85.2133 764.05 84.8 762.877 84.8H762.317C762.317 84.8 762.29 84.6533 762.237 84.36C762.184 84.0667 762.13 83.7733 762.077 83.48C762.024 83.16 761.997 83 761.997 83ZM762.397 83V107H754.557V83H762.397ZM754.677 104.52L754.597 107H752.077V106.6C752.13 106.6 752.197 106.6 752.277 106.6C752.384 106.6 752.464 106.6 752.517 106.6C753.077 106.6 753.557 106.4 753.957 106C754.357 105.6 754.557 105.107 754.557 104.52H754.677ZM754.637 85.48H754.557C754.557 84.8667 754.344 84.3733 753.917 84C753.517 83.6 753.037 83.4 752.477 83.4C752.424 83.4 752.344 83.4 752.237 83.4C752.157 83.4 752.09 83.4 752.037 83.4V83H754.557L754.637 85.48ZM762.317 104.52H762.397C762.424 105.107 762.624 105.6 762.997 106C763.37 106.4 763.864 106.6 764.477 106.6C764.53 106.6 764.597 106.6 764.677 106.6C764.784 106.6 764.864 106.6 764.917 106.6L764.877 107H762.357L762.317 104.52ZM785.494 83V107H777.654V83H785.494ZM793.934 105.16L795.534 107H785.414V105.16H793.934ZM792.934 94.24V96.12H785.414V94.24H792.934ZM794.694 83V84.84H785.414V83H794.694ZM796.734 98.6L795.614 107H788.174L789.334 105.16C790.374 105.16 791.36 104.907 792.294 104.4C793.254 103.867 794.094 103.12 794.814 102.16C795.534 101.173 796.054 99.9867 796.374 98.6H796.734ZM792.934 96.04V100.36H792.534V100.2C792.534 99.0267 792.16 98.0667 791.414 97.32C790.694 96.5467 789.747 96.1467 788.574 96.12V96.04H792.934ZM792.934 90.04V94.32H788.574V94.24C789.747 94.2133 790.694 93.8133 791.414 93.04C792.16 92.2667 792.534 91.2933 792.534 90.12V90.04H792.934ZM794.694 84.76V89.96H794.294V89.76C794.294 88.2133 793.894 87.0133 793.094 86.16C792.294 85.3067 791.134 84.8667 789.614 84.84V84.76H794.694ZM794.694 82.4V83.36L790.734 83C791.454 83 792.214 82.9333 793.014 82.8C793.84 82.64 794.4 82.5067 794.694 82.4ZM777.774 104.52L777.734 107H775.134V106.6C775.134 106.6 775.2 106.6 775.334 106.6C775.467 106.6 775.547 106.6 775.574 106.6C776.134 106.6 776.614 106.4 777.014 106C777.44 105.6 777.654 105.107 777.654 104.52H777.774ZM777.774 85.52H777.654C777.654 84.9067 777.44 84.4 777.014 84C776.614 83.6 776.134 83.4 775.574 83.4C775.547 83.4 775.467 83.4 775.334 83.4C775.2 83.4 775.134 83.4 775.134 83.4V83H777.734L777.774 85.52Z" fill="white"/>
<defs>
<filter id="filter0_d_88_6" x="519" y="0" width="193" height="140" filterUnits="userSpaceOnUse" color-interpolation-filters="sRGB">
<feFlood flood-opacity="0" result="BackgroundImageFix"/>
<feColorMatrix in="SourceAlpha" type="matrix" values="0 0 0 0 0 0 0 0 0 0 0 0 0 0 0 0 0 0 127 0" result="hardAlpha"/>
<feOffset dy="4"/>
<feGaussianBlur stdDeviation="5"/>
<feComposite in2="hardAlpha" operator="out"/>
<feColorMatrix type="matrix" values="0 0 0 0 0.287178 0 0 0 0 0.165938 0 0 0 0 0.7375 0 0 0 0.29 0"/>
<feBlend mode="normal" in2="BackgroundImageFix" result="effect1_dropShadow_88_6"/>
<feBlend mode="normal" in="SourceGraphic" in2="effect1_dropShadow_88_6" result="shape"/>
</filter>
</defs>
</svg>
